<?xml version="1.0" encoding="UTF-8"?>
<svg width="842px" height="595px" viewBox="0 0 842 595" version="1.1" xmlns="http://www.w3.org/2000/svg" xmlns:xlink="http://www.w3.org/1999/xlink">
    <!-- Generator: Sketch 61.2 (89653) - https://sketch.com -->
    <title>Fireclient</title>
    <desc>Created with Sketch.</desc>
    <defs>
        <rect id="path-1" x="135" y="229" width="611" height="133" rx="3"></rect>
        <filter x="-2.1%" y="-9.8%" width="105.6%" height="125.6%" filterUnits="objectBoundingBox" id="filter-2">
            <feOffset dx="4" dy="4" in="SourceAlpha" result="shadowOffsetOuter1"></feOffset>
            <feGaussianBlur stdDeviation="5" in="shadowOffsetOuter1" result="shadowBlurOuter1"></feGaussianBlur>
            <feComposite in="shadowBlurOuter1" in2="SourceAlpha" operator="out" result="shadowBlurOuter1"></feComposite>
            <feColorMatrix values="0 0 0 0 0   0 0 0 0 0   0 0 0 0 0  0 0 0 0.1 0" type="matrix" in="shadowBlurOuter1"></feColorMatrix>
        </filter>
    </defs>
    <g id="Fireclient" stroke="none" stroke-width="1" fill="none" fill-rule="evenodd">
        <rect fill="#F9F9F9" x="0" y="0" width="842" height="595"></rect>
        <g id="Group" transform="translate(270.000000, 41.000000)">
            <g id="Cloud-Firestore" fill-rule="nonzero">
                <path d="M49.7056092,20.4000045 L39.434545,2.33393349 C38.6485905,0.92394022 37.1830634,0.040540287 35.5830326,0.012293794 L15.0409432,0.012293794 C13.4408,0.039651168 11.9748679,0.92281198 11.1889623,2.3329461 L0.917898061,20.362918 C0.123013645,21.761152 0.122671633,23.4813328 0.916999981,24.87989 L11.1882204,43.0284282 C11.96613,44.457792 13.42782,45.3701313 15.0397328,45.4324165 L35.5816659,45.4324165 C37.1928174,45.3762081 38.6560352,44.4671335 39.4340764,43.0389735 L49.704633,24.9717571 C50.5002201,23.5541707 50.5005908,21.8179384 49.7056092,20.4000045 Z" id="Shape" fill="#4285F4"></path>
                <path d="M34.98784,16.5319479 L25.3114998,14.5132802 L15.6351987,20.8818528 L19.6269286,24.9195832 L15.6351987,28.4945023 L32.3806365,45.4324165 L35.5816659,45.4324165 C37.1928197,45.3762159 38.656041,44.4671391 39.4340764,43.0389735 L47.3779818,29.0646631 L34.98784,16.5319479 Z" id="Shape" fill="#000000" opacity="0.07"></path>
                <polygon id="Shape" fill="#FFFFFF" points="25.3114998 12.182122 15.6352768 16.5317899 15.6352768 20.8818528 25.3114998 16.5317899 34.9877229 20.8818528 34.9877229 16.5317899"></polygon>
                <polygon id="Shape" fill="#FFFFFF" points="15.6352768 24.1445974 15.6352768 28.4946603 25.3114998 24.1445974 34.9877229 28.4946603 34.9877229 24.1445974 25.3114998 19.7945346"></polygon>
                <polygon id="Shape" fill="#FFFFFF" points="25.3114998 29.5819786 25.3114998 33.9320414 33.7807818 30.1246503 28.9362276 27.9523835"></polygon>
            </g>
            <text id="Cloud-Firestore" font-family="HiraginoSans-W7, Hiragino Sans" font-size="30" font-weight="bold" letter-spacing="0.6" fill="#000000">
                <tspan x="72" y="34">Cloud Firestore</tspan>
            </text>
        </g>
        <text font-family="HiraginoSans-W7, Hiragino Sans" font-size="30" font-weight="bold" letter-spacing="0.6" fill="#000000">
            <tspan x="357" y="205">Fireclient</tspan>
        </text>
        <g id="Group-2" transform="translate(534.000000, 385.000000)">
            <text id="View" font-family="HiraginoSans-W7, Hiragino Sans" font-size="30" font-weight="bold" letter-spacing="0.6" fill="#000000">
                <tspan x="0" y="170">View</tspan>
            </text>
            <line x1="42.5" y1="13.5" x2="42.5" y2="127.5" id="Line" stroke="#979797" stroke-linecap="square" stroke-dasharray="8"></line>
            <text id="hooks" font-family="HiraginoSans-W7, Hiragino Sans" font-size="30" font-weight="bold" letter-spacing="0.6" fill="#596376">
                <tspan x="68" y="26">hooks</tspan>
            </text>
            <text id="--useQuery()---useGe" font-family="HiraginoSans-W3, Hiragino Sans" font-size="20" font-weight="300" line-spacing="30" letter-spacing="0.4" fill="#171A1F">
                <tspan x="68" y="56">- useQuery()</tspan>
                <tspan x="68" y="86">- useGetDoc()</tspan>
                <tspan x="68" y="116">- useSetDoc()</tspan>
            </text>
        </g>
        <g id="Group-3" transform="translate(141.000000, 396.000000)">
            <text id="View" font-family="HiraginoSans-W7, Hiragino Sans" font-size="30" font-weight="bold" letter-spacing="0.6" fill="#000000">
                <tspan x="78.5" y="157">View</tspan>
            </text>
            <text id="独自の-custom-hooks" font-family="HiraginoSans-W7, Hiragino Sans" font-size="30" font-weight="bold" line-spacing="35" letter-spacing="0.6" fill="#596376">
                <tspan x="77.1" y="41">独自の</tspan>
                <tspan x="0.945" y="76">custom hooks</tspan>
            </text>
            <line x1="120" y1="0.5" x2="120" y2="114.5" id="Line" stroke="#979797" stroke-linecap="square" stroke-dasharray="8"></line>
        </g>
        <g id="Rectangle">
            <use fill="black" fill-opacity="1" filter="url(#filter-2)" xlink:href="#path-1"></use>
            <rect stroke="#F2F3F5" stroke-width="1" stroke-linejoin="square" fill="#FEFEFE" fill-rule="evenodd" x="135.5" y="229.5" width="610" height="132" rx="3"></rect>
        </g>
        <text id="状態管理" font-family="HiraginoSans-W7, Hiragino Sans" font-size="30" font-weight="bold" letter-spacing="0.6" fill="#FA6400">
            <tspan x="241" y="335">状態管理</tspan>
        </text>
        <text id="状態管理-copy" font-family="HiraginoSans-W7, Hiragino Sans" font-size="30" font-weight="bold" letter-spacing="0.6" fill="#FA6400">
            <tspan x="241" y="335">状態管理</tspan>
        </text>
        <line x1="440.5" y1="98.5" x2="440.5" y2="168.5" id="Line" stroke="#979797" stroke-linecap="square" stroke-dasharray="8"></line>
        <text id="非同期処理（ネットワーク）" font-family="HiraginoSans-W7, Hiragino Sans" font-size="30" font-weight="bold" letter-spacing="0.6" fill="#00A1EB">
            <tspan x="241" y="278">非同期処理（ネットワーク）</tspan>
        </text>
    </g>
</svg>